<mxfile host="app.diagrams.net" modified="2024-12-17T12:18:35.075Z" agent="Mozilla/5.0 (Macintosh; Intel Mac OS X 10_15_7) AppleWebKit/537.36 (KHTML, like Gecko) Chrome/131.0.0.0 Safari/537.36" version="22.1.16" etag="HUUNPRn--zJuPUfM12Lt" type="github">
  <diagram name="第 1 页" id="ga1OJ2_W6I_dNHMd8VC5">
    <mxGraphModel>
      <root>
        <mxCell id="0" />
        <mxCell id="1" parent="0" />
      </root>
    </mxGraphModel>
  </diagram>
</mxfile>
